<mxfile host="app.diagrams.net" modified="2024-02-20T11:48:03.040Z" agent="Mozilla/5.0 (Windows NT 10.0; Win64; x64) AppleWebKit/537.36 (KHTML, like Gecko) Chrome/120.0.0.0 YaBrowser/24.1.0.0 Safari/537.36" etag="MqmsRhnSmJsa5nGg-8Ml" version="23.1.5" type="device">
  <diagram name="Страница — 1" id="OQYlK4gq3XDp_OIohNWo">
    <mxGraphModel dx="770" dy="447" grid="0" gridSize="10" guides="1" tooltips="1" connect="1" arrows="1" fold="1" page="1" pageScale="1" pageWidth="827" pageHeight="1169" math="0" shadow="0">
      <root>
        <mxCell id="0" />
        <mxCell id="1" parent="0" />
        <mxCell id="WhZeEfPbCVpSr8RxyIic-16" value="list" style="swimlane;fontStyle=1;align=center;verticalAlign=top;childLayout=stackLayout;horizontal=1;startSize=26;horizontalStack=0;resizeParent=1;resizeParentMax=0;resizeLast=0;collapsible=1;marginBottom=0;whiteSpace=wrap;html=1;" parent="1" vertex="1">
          <mxGeometry x="101" y="384" width="205" height="294" as="geometry">
            <mxRectangle x="101" y="384" width="52" height="26" as="alternateBounds" />
          </mxGeometry>
        </mxCell>
        <mxCell id="WhZeEfPbCVpSr8RxyIic-20" value="- value: *char" style="text;strokeColor=none;fillColor=none;align=left;verticalAlign=top;spacingLeft=4;spacingRight=4;overflow=hidden;rotatable=0;points=[[0,0.5],[1,0.5]];portConstraint=eastwest;whiteSpace=wrap;html=1;" parent="WhZeEfPbCVpSr8RxyIic-16" vertex="1">
          <mxGeometry y="26" width="205" height="26" as="geometry" />
        </mxCell>
        <mxCell id="WhZeEfPbCVpSr8RxyIic-17" value="- next: *list" style="text;strokeColor=none;fillColor=none;align=left;verticalAlign=top;spacingLeft=4;spacingRight=4;overflow=hidden;rotatable=0;points=[[0,0.5],[1,0.5]];portConstraint=eastwest;whiteSpace=wrap;html=1;" parent="WhZeEfPbCVpSr8RxyIic-16" vertex="1">
          <mxGeometry y="52" width="205" height="26" as="geometry" />
        </mxCell>
        <mxCell id="WhZeEfPbCVpSr8RxyIic-18" value="" style="line;strokeWidth=1;fillColor=none;align=left;verticalAlign=middle;spacingTop=-1;spacingLeft=3;spacingRight=3;rotatable=0;labelPosition=right;points=[];portConstraint=eastwest;strokeColor=inherit;" parent="WhZeEfPbCVpSr8RxyIic-16" vertex="1">
          <mxGeometry y="78" width="205" height="8" as="geometry" />
        </mxCell>
        <mxCell id="WhZeEfPbCVpSr8RxyIic-19" value="+ list()" style="text;strokeColor=none;fillColor=none;align=left;verticalAlign=top;spacingLeft=4;spacingRight=4;overflow=hidden;rotatable=0;points=[[0,0.5],[1,0.5]];portConstraint=eastwest;whiteSpace=wrap;html=1;" parent="WhZeEfPbCVpSr8RxyIic-16" vertex="1">
          <mxGeometry y="86" width="205" height="26" as="geometry" />
        </mxCell>
        <mxCell id="WhZeEfPbCVpSr8RxyIic-22" value="+ list(char *value)" style="text;strokeColor=none;fillColor=none;align=left;verticalAlign=top;spacingLeft=4;spacingRight=4;overflow=hidden;rotatable=0;points=[[0,0.5],[1,0.5]];portConstraint=eastwest;whiteSpace=wrap;html=1;" parent="WhZeEfPbCVpSr8RxyIic-16" vertex="1">
          <mxGeometry y="112" width="205" height="26" as="geometry" />
        </mxCell>
        <mxCell id="WhZeEfPbCVpSr8RxyIic-21" value="+ find(char *value): list" style="text;strokeColor=none;fillColor=none;align=left;verticalAlign=top;spacingLeft=4;spacingRight=4;overflow=hidden;rotatable=0;points=[[0,0.5],[1,0.5]];portConstraint=eastwest;whiteSpace=wrap;html=1;" parent="WhZeEfPbCVpSr8RxyIic-16" vertex="1">
          <mxGeometry y="138" width="205" height="26" as="geometry" />
        </mxCell>
        <mxCell id="wN-8WOTjSVyK1rVOfwQU-4" value="+ contains(char *value): bool" style="text;strokeColor=none;fillColor=none;align=left;verticalAlign=top;spacingLeft=4;spacingRight=4;overflow=hidden;rotatable=0;points=[[0,0.5],[1,0.5]];portConstraint=eastwest;whiteSpace=wrap;html=1;" parent="WhZeEfPbCVpSr8RxyIic-16" vertex="1">
          <mxGeometry y="164" width="205" height="26" as="geometry" />
        </mxCell>
        <mxCell id="WhZeEfPbCVpSr8RxyIic-23" value="+ size(): int" style="text;strokeColor=none;fillColor=none;align=left;verticalAlign=top;spacingLeft=4;spacingRight=4;overflow=hidden;rotatable=0;points=[[0,0.5],[1,0.5]];portConstraint=eastwest;whiteSpace=wrap;html=1;" parent="WhZeEfPbCVpSr8RxyIic-16" vertex="1">
          <mxGeometry y="190" width="205" height="26" as="geometry" />
        </mxCell>
        <mxCell id="WhZeEfPbCVpSr8RxyIic-24" value="+ print(std::ostream &amp;amp;ostream&lt;span style=&quot;background-color: initial;&quot;&gt;): void&lt;/span&gt;" style="text;strokeColor=none;fillColor=none;align=left;verticalAlign=top;spacingLeft=4;spacingRight=4;overflow=hidden;rotatable=0;points=[[0,0.5],[1,0.5]];portConstraint=eastwest;whiteSpace=wrap;html=1;" parent="WhZeEfPbCVpSr8RxyIic-16" vertex="1">
          <mxGeometry y="216" width="205" height="26" as="geometry" />
        </mxCell>
        <mxCell id="WhZeEfPbCVpSr8RxyIic-25" value="+ del(char *value): bool" style="text;strokeColor=none;fillColor=none;align=left;verticalAlign=top;spacingLeft=4;spacingRight=4;overflow=hidden;rotatable=0;points=[[0,0.5],[1,0.5]];portConstraint=eastwest;whiteSpace=wrap;html=1;" parent="WhZeEfPbCVpSr8RxyIic-16" vertex="1">
          <mxGeometry y="242" width="205" height="26" as="geometry" />
        </mxCell>
        <mxCell id="WhZeEfPbCVpSr8RxyIic-26" value="+ push_back(char *value): void" style="text;strokeColor=none;fillColor=none;align=left;verticalAlign=top;spacingLeft=4;spacingRight=4;overflow=hidden;rotatable=0;points=[[0,0.5],[1,0.5]];portConstraint=eastwest;whiteSpace=wrap;html=1;" parent="WhZeEfPbCVpSr8RxyIic-16" vertex="1">
          <mxGeometry y="268" width="205" height="26" as="geometry" />
        </mxCell>
        <mxCell id="WhZeEfPbCVpSr8RxyIic-32" value="" style="edgeStyle=orthogonalEdgeStyle;rounded=0;orthogonalLoop=1;jettySize=auto;html=1;" parent="1" source="WhZeEfPbCVpSr8RxyIic-30" target="WhZeEfPbCVpSr8RxyIic-31" edge="1">
          <mxGeometry relative="1" as="geometry" />
        </mxCell>
        <mxCell id="WhZeEfPbCVpSr8RxyIic-30" value="&lt;font style=&quot;font-size: 10px;&quot;&gt;main&lt;/font&gt;" style="ellipse;whiteSpace=wrap;html=1;" parent="1" vertex="1">
          <mxGeometry x="358.5" y="403" width="75" height="30" as="geometry" />
        </mxCell>
        <mxCell id="WhZeEfPbCVpSr8RxyIic-34" value="" style="edgeStyle=orthogonalEdgeStyle;rounded=0;orthogonalLoop=1;jettySize=auto;html=1;" parent="1" source="WhZeEfPbCVpSr8RxyIic-31" target="WhZeEfPbCVpSr8RxyIic-33" edge="1">
          <mxGeometry relative="1" as="geometry" />
        </mxCell>
        <mxCell id="WhZeEfPbCVpSr8RxyIic-31" value="&lt;font style=&quot;font-size: 10px;&quot;&gt;std::ostream &amp;amp;ostream = std::cout&lt;/font&gt;" style="whiteSpace=wrap;html=1;" parent="1" vertex="1">
          <mxGeometry x="319" y="447" width="154" height="20" as="geometry" />
        </mxCell>
        <mxCell id="WhZeEfPbCVpSr8RxyIic-36" value="" style="edgeStyle=orthogonalEdgeStyle;rounded=0;orthogonalLoop=1;jettySize=auto;html=1;" parent="1" source="WhZeEfPbCVpSr8RxyIic-33" target="WhZeEfPbCVpSr8RxyIic-35" edge="1">
          <mxGeometry relative="1" as="geometry" />
        </mxCell>
        <mxCell id="WhZeEfPbCVpSr8RxyIic-33" value="&lt;font style=&quot;font-size: 10px;&quot;&gt;std::istream &amp;amp;istream = std::cin&lt;/font&gt;" style="whiteSpace=wrap;html=1;" parent="1" vertex="1">
          <mxGeometry x="319" y="481" width="154" height="20" as="geometry" />
        </mxCell>
        <mxCell id="WhZeEfPbCVpSr8RxyIic-38" style="edgeStyle=orthogonalEdgeStyle;rounded=0;orthogonalLoop=1;jettySize=auto;html=1;exitX=0.5;exitY=1;exitDx=0;exitDy=0;entryX=0.5;entryY=0;entryDx=0;entryDy=0;" parent="1" source="WhZeEfPbCVpSr8RxyIic-35" target="WhZeEfPbCVpSr8RxyIic-37" edge="1">
          <mxGeometry relative="1" as="geometry" />
        </mxCell>
        <mxCell id="WhZeEfPbCVpSr8RxyIic-35" value="&lt;font style=&quot;font-size: 10px;&quot;&gt;MyHandler *myHandler = &lt;br&gt;new MyHandler(ostream, istream)&lt;/font&gt;" style="whiteSpace=wrap;html=1;" parent="1" vertex="1">
          <mxGeometry x="319" y="515" width="154" height="32" as="geometry" />
        </mxCell>
        <mxCell id="msGOGFPddx5jtVh7guZ0-2" style="edgeStyle=orthogonalEdgeStyle;rounded=0;orthogonalLoop=1;jettySize=auto;html=1;entryX=0.5;entryY=0;entryDx=0;entryDy=0;" edge="1" parent="1" source="WhZeEfPbCVpSr8RxyIic-37" target="WhZeEfPbCVpSr8RxyIic-40">
          <mxGeometry relative="1" as="geometry" />
        </mxCell>
        <mxCell id="WhZeEfPbCVpSr8RxyIic-37" value="&lt;font style=&quot;font-size: 10px;&quot;&gt;myHandler-&amp;gt;start(&#39;0&#39;)&lt;/font&gt;" style="whiteSpace=wrap;html=1;" parent="1" vertex="1">
          <mxGeometry x="319" y="561" width="154" height="20" as="geometry" />
        </mxCell>
        <mxCell id="WhZeEfPbCVpSr8RxyIic-45" style="edgeStyle=orthogonalEdgeStyle;rounded=0;orthogonalLoop=1;jettySize=auto;html=1;entryX=0.5;entryY=0;entryDx=0;entryDy=0;" parent="1" source="WhZeEfPbCVpSr8RxyIic-39" edge="1">
          <mxGeometry relative="1" as="geometry">
            <mxPoint x="350" y="594" as="targetPoint" />
          </mxGeometry>
        </mxCell>
        <mxCell id="WhZeEfPbCVpSr8RxyIic-48" style="edgeStyle=orthogonalEdgeStyle;rounded=0;orthogonalLoop=1;jettySize=auto;html=1;entryX=0.5;entryY=0;entryDx=0;entryDy=0;" parent="1" source="WhZeEfPbCVpSr8RxyIic-40" target="WhZeEfPbCVpSr8RxyIic-47" edge="1">
          <mxGeometry relative="1" as="geometry" />
        </mxCell>
        <mxCell id="WhZeEfPbCVpSr8RxyIic-40" value="&lt;font style=&quot;font-size: 10px;&quot;&gt;return 0&lt;/font&gt;" style="whiteSpace=wrap;html=1;" parent="1" vertex="1">
          <mxGeometry x="319" y="595" width="154" height="20" as="geometry" />
        </mxCell>
        <mxCell id="WhZeEfPbCVpSr8RxyIic-47" value="&lt;font style=&quot;font-size: 10px;&quot;&gt;Конец&lt;/font&gt;" style="ellipse;whiteSpace=wrap;html=1;" parent="1" vertex="1">
          <mxGeometry x="358.5" y="630" width="75" height="30" as="geometry" />
        </mxCell>
      </root>
    </mxGraphModel>
  </diagram>
</mxfile>
